<svg xmlns="http://www.w3.org/2000/svg" xmlns:xlink="http://www.w3.org/1999/xlink" width="600" zoomAndPan="magnify" viewBox="0 0 450 112.499997" height="150" preserveAspectRatio="xMidYMid meet" version="1.0"><defs><g/><clipPath id="8105ec6c1f"><path d="M 19.894531 18 L 72 18 L 72 45 L 19.894531 45 Z M 19.894531 18 " clip-rule="nonzero"/></clipPath><clipPath id="6d3e1de4f5"><path d="M 44 66 L 95.859375 66 L 95.859375 93 L 44 93 Z M 44 66 " clip-rule="nonzero"/></clipPath><clipPath id="c36e355734"><path d="M 19.894531 33 L 56 33 L 56 84 L 19.894531 84 Z M 19.894531 33 " clip-rule="nonzero"/></clipPath><clipPath id="4f4c1fd2d8"><path d="M 48 11.425781 L 84 11.425781 L 84 62 L 48 62 Z M 48 11.425781 " clip-rule="nonzero"/></clipPath><clipPath id="5dd78d4e70"><path d="M 32 49 L 68 49 L 68 99.308594 L 32 99.308594 Z M 32 49 " clip-rule="nonzero"/></clipPath><clipPath id="78d3680c2d"><path d="M 60 27 L 95.859375 27 L 95.859375 78 L 60 78 Z M 60 27 " clip-rule="nonzero"/></clipPath></defs><g clip-path="url(#8105ec6c1f)"><path fill="#6936f5" d="M 45.375 18.554688 L 19.730469 33.351562 L 19.730469 44.832031 L 45.375 30.035156 L 71.019531 44.832031 L 71.019531 33.351562 Z M 45.375 18.554688 " fill-opacity="1" fill-rule="nonzero"/></g><g clip-path="url(#6d3e1de4f5)"><path fill="#6936f5" d="M 70.574219 92.496094 L 44.929688 77.699219 L 44.929688 66.222656 L 70.574219 81.019531 L 96.222656 66.222656 L 96.222656 77.699219 Z M 70.574219 92.496094 " fill-opacity="1" fill-rule="nonzero"/></g><g clip-path="url(#c36e355734)"><path fill="#6936f5" d="M 19.730469 47.914062 L 45.375 33.117188 L 55.320312 38.855469 L 29.675781 53.652344 L 29.675781 83.246094 L 19.730469 77.507812 Z M 19.730469 47.914062 " fill-opacity="1" fill-rule="nonzero"/></g><g clip-path="url(#4f4c1fd2d8)"><path fill="#6936f5" d="M 83.636719 26 L 57.992188 11.203125 L 48.046875 16.941406 L 73.691406 31.738281 L 73.691406 61.332031 L 83.636719 55.59375 Z M 83.636719 26 " fill-opacity="1" fill-rule="nonzero"/></g><g clip-path="url(#5dd78d4e70)"><path fill="#6936f5" d="M 32.402344 84.953125 L 32.402344 55.359375 L 42.347656 49.621094 L 42.347656 79.214844 L 67.992188 94.011719 L 58.046875 99.75 Z M 32.402344 84.953125 " fill-opacity="1" fill-rule="nonzero"/></g><g clip-path="url(#78d3680c2d)"><path fill="#6936f5" d="M 96.222656 63.140625 L 96.222656 33.546875 L 86.273438 27.808594 L 86.273438 57.402344 L 60.628906 72.199219 L 70.574219 77.9375 Z M 96.222656 63.140625 " fill-opacity="1" fill-rule="nonzero"/></g><g fill="#6936f5" fill-opacity="1"><g transform="translate(113.531548, 76.161499)"><g><path d="M 19 0.359375 C 15.851562 0.359375 13.023438 -0.335938 10.515625 -1.734375 C 8.003906 -3.128906 6.039062 -5.050781 4.625 -7.5 C 3.21875 -9.945312 2.515625 -12.722656 2.515625 -15.828125 C 2.515625 -18.929688 3.21875 -21.707031 4.625 -24.15625 C 6.039062 -26.613281 8.003906 -28.523438 10.515625 -29.890625 C 13.023438 -31.265625 15.851562 -31.953125 19 -31.953125 C 22.144531 -31.953125 24.960938 -31.265625 27.453125 -29.890625 C 29.941406 -28.523438 31.890625 -26.613281 33.296875 -24.15625 C 34.710938 -21.707031 35.421875 -18.929688 35.421875 -15.828125 C 35.421875 -12.722656 34.710938 -9.945312 33.296875 -7.5 C 31.890625 -5.050781 29.941406 -3.128906 27.453125 -1.734375 C 24.960938 -0.335938 22.144531 0.359375 19 0.359375 Z M 19 -4.65625 C 21.03125 -4.65625 22.847656 -5.125 24.453125 -6.0625 C 26.066406 -7 27.332031 -8.3125 28.25 -10 C 29.164062 -11.695312 29.625 -13.640625 29.625 -15.828125 C 29.625 -18.015625 29.164062 -19.953125 28.25 -21.640625 C 27.332031 -23.335938 26.066406 -24.644531 24.453125 -25.5625 C 22.847656 -26.476562 21.03125 -26.9375 19 -26.9375 C 16.96875 -26.9375 15.144531 -26.476562 13.53125 -25.5625 C 11.914062 -24.644531 10.640625 -23.335938 9.703125 -21.640625 C 8.765625 -19.953125 8.296875 -18.015625 8.296875 -15.828125 C 8.296875 -13.640625 8.765625 -11.695312 9.703125 -10 C 10.640625 -8.3125 11.914062 -7 13.53125 -6.0625 C 15.144531 -5.125 16.96875 -4.65625 19 -4.65625 Z M 19 -4.65625 "/></g></g></g><g fill="#6936f5" fill-opacity="1"><g transform="translate(151.462929, 76.161499)"><g><path d="M 22.21875 -31.953125 C 25.289062 -31.953125 28.039062 -31.273438 30.46875 -29.921875 C 32.894531 -28.566406 34.796875 -26.675781 36.171875 -24.25 C 37.546875 -21.820312 38.234375 -19.015625 38.234375 -15.828125 C 38.234375 -12.640625 37.546875 -9.820312 36.171875 -7.375 C 34.796875 -4.925781 32.894531 -3.023438 30.46875 -1.671875 C 28.039062 -0.316406 25.289062 0.359375 22.21875 0.359375 C 19.945312 0.359375 17.863281 -0.078125 15.96875 -0.953125 C 14.082031 -1.828125 12.484375 -3.101562 11.171875 -4.78125 L 11.171875 11.59375 L 5.4375 11.59375 L 5.4375 -31.65625 L 10.9375 -31.65625 L 10.9375 -26.640625 C 12.207031 -28.390625 13.816406 -29.710938 15.765625 -30.609375 C 17.722656 -31.503906 19.875 -31.953125 22.21875 -31.953125 Z M 21.75 -4.65625 C 23.78125 -4.65625 25.597656 -5.125 27.203125 -6.0625 C 28.816406 -7 30.09375 -8.3125 31.03125 -10 C 31.96875 -11.695312 32.4375 -13.640625 32.4375 -15.828125 C 32.4375 -18.015625 31.96875 -19.953125 31.03125 -21.640625 C 30.09375 -23.335938 28.816406 -24.644531 27.203125 -25.5625 C 25.597656 -26.476562 23.78125 -26.9375 21.75 -26.9375 C 19.75 -26.9375 17.941406 -26.46875 16.328125 -25.53125 C 14.722656 -24.59375 13.453125 -23.285156 12.515625 -21.609375 C 11.578125 -19.941406 11.109375 -18.015625 11.109375 -15.828125 C 11.109375 -13.640625 11.566406 -11.695312 12.484375 -10 C 13.398438 -8.3125 14.671875 -7 16.296875 -6.0625 C 17.929688 -5.125 19.75 -4.65625 21.75 -4.65625 Z M 21.75 -4.65625 "/></g></g></g><g fill="#6936f5" fill-opacity="1"><g transform="translate(192.201828, 76.161499)"><g><path d="M 34.046875 -15.65625 C 34.046875 -15.21875 34.003906 -14.640625 33.921875 -13.921875 L 8.25 -13.921875 C 8.601562 -11.128906 9.820312 -8.882812 11.90625 -7.1875 C 14 -5.5 16.601562 -4.65625 19.71875 -4.65625 C 23.5 -4.65625 26.546875 -5.929688 28.859375 -8.484375 L 32.015625 -4.78125 C 30.578125 -3.101562 28.789062 -1.828125 26.65625 -0.953125 C 24.53125 -0.078125 22.15625 0.359375 19.53125 0.359375 C 16.1875 0.359375 13.21875 -0.328125 10.625 -1.703125 C 8.039062 -3.078125 6.039062 -5 4.625 -7.46875 C 3.21875 -9.9375 2.515625 -12.722656 2.515625 -15.828125 C 2.515625 -18.890625 3.195312 -21.65625 4.5625 -24.125 C 5.9375 -26.601562 7.828125 -28.523438 10.234375 -29.890625 C 12.648438 -31.265625 15.367188 -31.953125 18.390625 -31.953125 C 21.421875 -31.953125 24.117188 -31.265625 26.484375 -29.890625 C 28.859375 -28.523438 30.710938 -26.601562 32.046875 -24.125 C 33.378906 -21.65625 34.046875 -18.832031 34.046875 -15.65625 Z M 18.390625 -27.125 C 15.648438 -27.125 13.351562 -26.285156 11.5 -24.609375 C 9.644531 -22.941406 8.5625 -20.753906 8.25 -18.046875 L 28.546875 -18.046875 C 28.234375 -20.710938 27.148438 -22.890625 25.296875 -24.578125 C 23.441406 -26.273438 21.140625 -27.125 18.390625 -27.125 Z M 18.390625 -27.125 "/></g></g></g><g fill="#6936f5" fill-opacity="1"><g transform="translate(228.759318, 76.161499)"><g><path d="M 22.34375 -31.953125 C 26.363281 -31.953125 29.554688 -30.785156 31.921875 -28.453125 C 34.296875 -26.128906 35.484375 -22.71875 35.484375 -18.21875 L 35.484375 0 L 29.75 0 L 29.75 -17.5625 C 29.75 -20.625 29.007812 -22.929688 27.53125 -24.484375 C 26.0625 -26.046875 23.953125 -26.828125 21.203125 -26.828125 C 18.097656 -26.828125 15.648438 -25.921875 13.859375 -24.109375 C 12.066406 -22.296875 11.171875 -19.695312 11.171875 -16.3125 L 11.171875 0 L 5.4375 0 L 5.4375 -31.65625 L 10.9375 -31.65625 L 10.9375 -26.875 C 12.082031 -28.507812 13.640625 -29.765625 15.609375 -30.640625 C 17.585938 -31.515625 19.832031 -31.953125 22.34375 -31.953125 Z M 22.34375 -31.953125 "/></g></g></g><g fill="#6936f5" fill-opacity="1"><g transform="translate(269.438482, 76.161499)"><g><path d="M 23.234375 -1.859375 C 22.398438 -1.140625 21.363281 -0.585938 20.125 -0.203125 C 18.894531 0.171875 17.625 0.359375 16.3125 0.359375 C 13.125 0.359375 10.648438 -0.492188 8.890625 -2.203125 C 7.140625 -3.921875 6.265625 -6.375 6.265625 -9.5625 L 6.265625 -26.9375 L 0.890625 -26.9375 L 0.890625 -31.65625 L 6.265625 -31.65625 L 6.265625 -38.59375 L 12 -38.59375 L 12 -31.65625 L 21.09375 -31.65625 L 21.09375 -26.9375 L 12 -26.9375 L 12 -9.796875 C 12 -8.085938 12.425781 -6.773438 13.28125 -5.859375 C 14.144531 -4.941406 15.375 -4.484375 16.96875 -4.484375 C 18.71875 -4.484375 20.207031 -4.976562 21.4375 -5.96875 Z M 23.234375 -1.859375 "/></g></g></g><g fill="#6936f5" fill-opacity="1"><g transform="translate(294.168542, 76.161499)"><g><path d="M 10.9375 -26.34375 C 11.925781 -28.175781 13.394531 -29.566406 15.34375 -30.515625 C 17.300781 -31.472656 19.671875 -31.953125 22.453125 -31.953125 L 22.453125 -26.40625 C 22.140625 -26.445312 21.703125 -26.46875 21.140625 -26.46875 C 18.035156 -26.46875 15.597656 -25.539062 13.828125 -23.6875 C 12.054688 -21.832031 11.171875 -19.191406 11.171875 -15.765625 L 11.171875 0 L 5.4375 0 L 5.4375 -31.65625 L 10.9375 -31.65625 Z M 10.9375 -26.34375 "/></g></g></g><g fill="#6936f5" fill-opacity="1"><g transform="translate(318.659671, 76.161499)"><g><path d="M 16.96875 -31.953125 C 21.34375 -31.953125 24.695312 -30.875 27.03125 -28.71875 C 29.363281 -26.570312 30.53125 -23.367188 30.53125 -19.109375 L 30.53125 0 L 25.09375 0 L 25.09375 -4.1875 C 24.132812 -2.707031 22.769531 -1.578125 21 -0.796875 C 19.226562 -0.0234375 17.125 0.359375 14.6875 0.359375 C 11.144531 0.359375 8.304688 -0.492188 6.171875 -2.203125 C 4.046875 -3.921875 2.984375 -6.171875 2.984375 -8.953125 C 2.984375 -11.742188 4 -13.984375 6.03125 -15.671875 C 8.0625 -17.367188 11.285156 -18.21875 15.703125 -18.21875 L 24.796875 -18.21875 L 24.796875 -19.359375 C 24.796875 -21.828125 24.078125 -23.71875 22.640625 -25.03125 C 21.203125 -26.34375 19.09375 -27 16.3125 -27 C 14.4375 -27 12.601562 -26.6875 10.8125 -26.0625 C 9.019531 -25.445312 7.503906 -24.625 6.265625 -23.59375 L 3.875 -27.890625 C 5.507812 -29.203125 7.460938 -30.207031 9.734375 -30.90625 C 12.003906 -31.601562 14.414062 -31.953125 16.96875 -31.953125 Z M 15.65625 -4.0625 C 17.84375 -4.0625 19.734375 -4.546875 21.328125 -5.515625 C 22.921875 -6.492188 24.078125 -7.878906 24.796875 -9.671875 L 24.796875 -14.09375 L 15.953125 -14.09375 C 11.085938 -14.09375 8.65625 -12.460938 8.65625 -9.203125 C 8.65625 -7.609375 9.269531 -6.351562 10.5 -5.4375 C 11.738281 -4.519531 13.457031 -4.0625 15.65625 -4.0625 Z M 15.65625 -4.0625 "/></g></g></g><g fill="#6936f5" fill-opacity="1"><g transform="translate(354.380859, 76.161499)"><g><path d="M 35.296875 -44.328125 L 35.296875 0 L 29.8125 0 L 29.8125 -5.015625 C 28.53125 -3.265625 26.914062 -1.929688 24.96875 -1.015625 C 23.019531 -0.0976562 20.867188 0.359375 18.515625 0.359375 C 15.453125 0.359375 12.703125 -0.316406 10.265625 -1.671875 C 7.835938 -3.023438 5.9375 -4.925781 4.5625 -7.375 C 3.195312 -9.820312 2.515625 -12.640625 2.515625 -15.828125 C 2.515625 -19.015625 3.195312 -21.820312 4.5625 -24.25 C 5.9375 -26.675781 7.835938 -28.566406 10.265625 -29.921875 C 12.703125 -31.273438 15.453125 -31.953125 18.515625 -31.953125 C 20.785156 -31.953125 22.875 -31.523438 24.78125 -30.671875 C 26.695312 -29.816406 28.289062 -28.550781 29.5625 -26.875 L 29.5625 -44.328125 Z M 19 -4.65625 C 20.988281 -4.65625 22.796875 -5.125 24.421875 -6.0625 C 26.054688 -7 27.332031 -8.3125 28.25 -10 C 29.164062 -11.695312 29.625 -13.640625 29.625 -15.828125 C 29.625 -18.015625 29.164062 -19.953125 28.25 -21.640625 C 27.332031 -23.335938 26.054688 -24.644531 24.421875 -25.5625 C 22.796875 -26.476562 20.988281 -26.9375 19 -26.9375 C 16.96875 -26.9375 15.144531 -26.476562 13.53125 -25.5625 C 11.914062 -24.644531 10.640625 -23.335938 9.703125 -21.640625 C 8.765625 -19.953125 8.296875 -18.015625 8.296875 -15.828125 C 8.296875 -13.640625 8.765625 -11.695312 9.703125 -10 C 10.640625 -8.3125 11.914062 -7 13.53125 -6.0625 C 15.144531 -5.125 16.96875 -4.65625 19 -4.65625 Z M 19 -4.65625 "/></g></g></g><g fill="#6936f5" fill-opacity="1"><g transform="translate(395.119747, 76.161499)"><g><path d="M 34.046875 -15.65625 C 34.046875 -15.21875 34.003906 -14.640625 33.921875 -13.921875 L 8.25 -13.921875 C 8.601562 -11.128906 9.820312 -8.882812 11.90625 -7.1875 C 14 -5.5 16.601562 -4.65625 19.71875 -4.65625 C 23.5 -4.65625 26.546875 -5.929688 28.859375 -8.484375 L 32.015625 -4.78125 C 30.578125 -3.101562 28.789062 -1.828125 26.65625 -0.953125 C 24.53125 -0.078125 22.15625 0.359375 19.53125 0.359375 C 16.1875 0.359375 13.21875 -0.328125 10.625 -1.703125 C 8.039062 -3.078125 6.039062 -5 4.625 -7.46875 C 3.21875 -9.9375 2.515625 -12.722656 2.515625 -15.828125 C 2.515625 -18.890625 3.195312 -21.65625 4.5625 -24.125 C 5.9375 -26.601562 7.828125 -28.523438 10.234375 -29.890625 C 12.648438 -31.265625 15.367188 -31.953125 18.390625 -31.953125 C 21.421875 -31.953125 24.117188 -31.265625 26.484375 -29.890625 C 28.859375 -28.523438 30.710938 -26.601562 32.046875 -24.125 C 33.378906 -21.65625 34.046875 -18.832031 34.046875 -15.65625 Z M 18.390625 -27.125 C 15.648438 -27.125 13.351562 -26.285156 11.5 -24.609375 C 9.644531 -22.941406 8.5625 -20.753906 8.25 -18.046875 L 28.546875 -18.046875 C 28.234375 -20.710938 27.148438 -22.890625 25.296875 -24.578125 C 23.441406 -26.273438 21.140625 -27.125 18.390625 -27.125 Z M 18.390625 -27.125 "/></g></g></g><path stroke-linecap="butt" transform="matrix(0.746681, 0, 0, 0.746681, 113.531548, 14.186946)" fill="none" stroke-linejoin="miter" d="M 25.450761 83.489961 C 21.228955 83.489961 17.441362 82.558757 14.082751 80.69635 C 10.724139 78.818248 8.092704 76.244359 6.193676 72.958988 C 4.305111 69.678849 3.358213 65.964497 3.358213 61.8107 C 3.358213 57.641209 4.305111 53.916394 6.193676 50.636255 C 8.092704 47.356116 10.724139 44.797921 14.082751 42.961671 C 17.441362 41.125421 21.228955 40.20468 25.450761 40.20468 C 29.656872 40.20468 33.423539 41.125421 36.755993 42.961671 C 40.093678 44.797921 42.704188 47.356116 44.587521 50.636255 C 46.491781 53.916394 47.44391 57.641209 47.44391 61.8107 C 47.44391 65.964497 46.491781 69.678849 44.587521 72.958988 C 42.704188 76.244359 40.093678 78.818248 36.755993 80.69635 C 33.423539 82.558757 29.656872 83.489961 25.450761 83.489961 Z M 25.450761 76.767507 C 28.155437 76.767507 30.593307 76.14496 32.753909 74.894636 C 34.914511 73.633849 36.609512 71.865608 37.833678 69.600377 C 39.068308 67.335145 39.685623 64.74033 39.685623 61.8107 C 39.685623 58.865376 39.068308 56.260098 37.833678 53.994866 C 36.609512 51.729635 34.914511 49.987551 32.753909 48.763384 C 30.593307 47.539218 28.155437 46.927134 25.450761 46.927134 C 22.73039 46.927134 20.287288 47.539218 18.126686 48.763384 C 15.966084 49.987551 14.250158 51.729635 12.989371 53.994866 C 11.739047 56.260098 11.111269 58.865376 11.111269 61.8107 C 11.111269 64.74033 11.739047 67.335145 12.989371 69.600377 C 14.250158 71.865608 15.966084 73.633849 18.126686 74.894636 C 20.287288 76.14496 22.73039 76.767507 25.450761 76.767507 Z M 80.564422 40.20468 C 84.665904 40.20468 88.343636 41.109726 91.602849 42.919819 C 94.856831 44.729912 97.399331 47.261949 99.235581 50.521162 C 101.071831 53.775144 101.992572 57.53658 101.992572 61.8107 C 101.992572 66.063895 101.071831 69.835793 99.235581 73.115932 C 97.399331 76.396072 94.856831 78.949035 91.602849 80.774822 C 88.343636 82.584915 84.665904 83.489961 80.564422 83.489961 C 77.5197 83.489961 74.726088 82.904035 72.18882 81.732183 C 69.662014 80.544637 67.517106 78.833942 65.759328 76.594868 L 65.759328 98.52524 L 58.084745 98.52524 L 58.084745 40.597041 L 65.450671 40.597041 L 65.450671 47.314264 C 67.156134 44.97056 69.311505 43.202319 71.911551 42.00431 C 74.532524 40.806301 77.41507 40.20468 80.564422 40.20468 Z M 79.92095 76.767507 C 82.64132 76.767507 85.084422 76.14496 87.245024 74.894636 C 89.405626 73.633849 91.111089 71.865608 92.361414 69.600377 C 93.611738 67.335145 94.239516 64.74033 94.239516 61.8107 C 94.239516 58.865376 93.611738 56.260098 92.361414 53.994866 C 91.111089 51.729635 89.405626 49.987551 87.245024 48.763384 C 85.084422 47.539218 82.64132 46.927134 79.92095 46.927134 C 77.252894 46.927134 74.835949 47.549681 72.675347 48.800005 C 70.514745 50.050329 68.809282 51.797644 67.558958 54.036718 C 66.308634 56.275792 65.680856 58.865376 65.680856 61.8107 C 65.680856 64.74033 66.29294 67.335145 67.517106 69.600377 C 68.741273 71.865608 70.446736 73.633849 72.633496 74.894636 C 74.825486 76.14496 77.252894 76.767507 79.92095 76.767507 Z M 150.964473 62.040885 C 150.964473 62.626811 150.912159 63.401071 150.807529 64.368895 L 116.394841 64.368895 C 116.876138 68.09371 118.518823 71.091349 121.317666 73.372275 C 124.116509 75.637507 127.600675 76.767507 131.764935 76.767507 C 136.829009 76.767507 140.904334 75.056812 143.990908 71.635423 L 148.228408 76.594868 C 146.318917 78.833942 143.933362 80.544637 141.082204 81.732183 C 138.231047 82.904035 135.039843 83.489961 131.513824 83.489961 C 127.035675 83.489961 123.059749 82.56922 119.596508 80.73297 C 116.133267 78.886257 113.454748 76.307136 111.550489 73.00084 C 109.661924 69.694543 108.720257 65.964497 108.720257 61.8107 C 108.720257 57.693524 109.635767 53.984403 111.472017 50.678107 C 113.323961 47.366579 115.855999 44.797921 119.07336 42.961671 C 122.301184 41.125421 125.947527 40.20468 130.007157 40.20468 C 134.056324 40.20468 137.666047 41.125421 140.831093 42.961671 C 144.006603 44.797921 146.486325 47.366579 148.27026 50.678107 C 150.064658 53.984403 150.964473 57.771996 150.964473 62.040885 Z M 130.007157 46.670792 C 126.324194 46.670792 123.23762 47.790329 120.752666 50.029403 C 118.278175 52.268477 116.823823 55.20857 116.394841 58.839218 L 143.603778 58.839218 C 143.174797 55.271348 141.715213 52.357412 139.225028 50.092181 C 136.750537 47.811255 133.679657 46.670792 130.007157 46.670792 Z M 184.241929 40.20468 C 189.630356 40.20468 193.909708 41.768893 197.074754 44.892088 C 200.250264 48.00482 201.840634 52.577135 201.840634 58.603802 L 201.840634 82.998202 L 194.166051 82.998202 L 194.166051 59.482691 C 194.166051 55.370746 193.172069 52.27894 191.194569 50.207273 C 189.227532 48.125144 186.402531 47.084079 182.719568 47.084079 C 178.565772 47.084079 175.285633 48.297783 172.873919 50.735653 C 170.477901 53.157829 169.279891 56.631533 169.279891 61.161996 L 169.279891 82.998202 L 161.605307 82.998202 L 161.605307 40.597041 L 168.966002 40.597041 L 168.966002 47.005607 C 170.504058 44.818847 172.596651 43.13431 175.238549 41.962458 C 177.880448 40.790606 180.883318 40.20468 184.241929 40.20468 Z M 239.915359 80.518479 C 238.795822 81.481072 237.404248 82.218711 235.7511 82.726165 C 234.097951 83.233618 232.392488 83.489961 230.634711 83.489961 C 226.376284 83.489961 223.069988 82.344266 220.715821 80.052877 C 218.372117 77.745794 217.200265 74.465655 217.200265 70.207229 L 217.200265 46.927134 L 209.991283 46.927134 L 209.991283 40.597041 L 217.200265 40.597041 L 217.200265 31.321624 L 224.874849 31.321624 L 224.874849 40.597041 L 237.043276 40.597041 L 237.043276 46.927134 L 224.874849 46.927134 L 224.874849 69.872414 C 224.874849 72.169034 225.445081 73.932044 226.590775 75.166673 C 227.73647 76.39084 229.379155 77.002923 231.513599 77.002923 C 233.857303 77.002923 235.855729 76.333294 237.508878 74.994034 Z M 256.567166 47.727551 C 257.895962 45.263523 259.863 43.395884 262.468278 42.119402 C 265.084019 40.842921 268.259528 40.20468 272.000038 40.20468 L 272.000038 47.649079 C 271.565825 47.58107 270.979899 47.549681 270.24226 47.549681 C 266.072769 47.549681 262.803092 48.794773 260.433231 51.279727 C 258.06337 53.754218 256.881055 57.2907 256.881055 61.889172 L 256.881055 82.998202 L 249.206471 82.998202 L 249.206471 40.597041 L 256.567166 40.597041 Z M 297.435502 40.20468 C 303.305225 40.20468 307.799068 41.643338 310.9118 44.525884 C 314.034994 47.403199 315.599207 51.693014 315.599207 57.395329 L 315.599207 82.998202 L 308.311753 82.998202 L 308.311753 77.395285 C 307.035271 79.372785 305.209484 80.884683 302.823929 81.925748 C 300.454067 82.966813 297.649993 83.489961 294.406474 83.489961 C 289.656289 83.489961 285.853001 82.344266 283.001844 80.052877 C 280.150686 77.745794 278.722492 74.73246 278.722492 71.007645 C 278.722492 67.272367 280.082677 64.269497 282.808279 62.004265 C 285.52865 59.739033 289.844622 58.603802 295.756197 58.603802 L 307.924623 58.603802 L 307.924623 57.081441 C 307.924623 53.775144 306.956799 51.243107 305.031614 49.485329 C 303.116892 47.727551 300.291891 46.848662 296.556613 46.848662 C 294.055965 46.848662 291.6024 47.261949 289.190687 48.098986 C 286.794668 48.920329 284.770085 50.01894 283.116936 51.400051 L 279.91527 45.634958 C 282.102029 43.87718 284.712538 42.537921 287.746798 41.611949 C 290.79152 40.675513 294.024576 40.20468 297.435502 40.20468 Z M 295.677724 77.552229 C 298.607354 77.552229 301.139391 76.898294 303.273836 75.595655 C 305.408281 74.293016 306.956799 72.441071 307.924623 70.029358 L 307.924623 64.112552 L 296.08578 64.112552 C 289.577817 64.112552 286.323835 66.299312 286.323835 70.678062 C 286.323835 72.812507 287.150409 74.491812 288.803557 75.715979 C 290.456706 76.940146 292.748095 77.552229 295.677724 77.552229 Z M 369.844443 23.64704 L 369.844443 82.998202 L 362.483748 82.998202 L 362.483748 76.280979 C 360.778285 78.624683 358.612451 80.41385 355.99671 81.653711 C 353.380969 82.877878 350.503654 83.489961 347.364765 83.489961 C 343.247589 83.489961 339.564626 82.584915 336.310644 80.774822 C 333.067125 78.949035 330.519394 76.396072 328.67268 73.115932 C 326.83643 69.835793 325.920921 66.063895 325.920921 61.8107 C 325.920921 57.53658 326.83643 53.775144 328.67268 50.521162 C 330.519394 47.261949 333.067125 44.729912 336.310644 42.919819 C 339.564626 41.109726 343.247589 40.20468 347.364765 40.20468 C 350.399025 40.20468 353.192636 40.780143 355.745599 41.925838 C 358.309025 43.071532 360.448701 44.766532 362.169859 47.005607 L 362.169859 23.64704 Z M 348.008237 76.767507 C 350.66583 76.767507 353.088006 76.14496 355.274766 74.894636 C 357.461525 73.633849 359.166988 71.865608 360.391155 69.600377 C 361.631016 67.335145 362.248331 64.74033 362.248331 61.8107 C 362.248331 58.865376 361.631016 56.260098 360.391155 53.994866 C 359.166988 51.729635 357.461525 49.987551 355.274766 48.763384 C 353.088006 47.539218 350.66583 46.927134 348.008237 46.927134 C 345.287867 46.927134 342.844765 47.539218 340.684163 48.763384 C 338.523561 49.987551 336.812866 51.729635 335.546848 53.994866 C 334.296523 56.260098 333.673977 58.865376 333.673977 61.8107 C 333.673977 64.74033 334.296523 67.335145 335.546848 69.600377 C 336.812866 71.865608 338.523561 73.633849 340.684163 74.894636 C 342.844765 76.14496 345.287867 76.767507 348.008237 76.767507 Z M 422.724261 62.040885 C 422.724261 62.626811 422.671946 63.401071 422.567317 64.368895 L 388.154629 64.368895 C 388.635925 68.09371 390.278611 71.091349 393.077454 73.372275 C 395.876296 75.637507 399.360463 76.767507 403.524723 76.767507 C 408.588797 76.767507 412.664122 75.056812 415.750696 71.635423 L 419.988196 76.594868 C 418.078705 78.833942 415.69315 80.544637 412.841992 81.732183 C 409.990834 82.904035 406.79963 83.489961 403.273612 83.489961 C 398.790232 83.489961 394.819537 82.56922 391.356296 80.73297 C 387.893055 78.886257 385.214536 76.307136 383.310277 73.00084 C 381.421712 69.694543 380.480045 65.964497 380.480045 61.8107 C 380.480045 57.693524 381.395555 53.984403 383.231805 50.678107 C 385.083749 47.366579 387.615786 44.797921 390.833148 42.961671 C 394.060972 41.125421 397.707315 40.20468 401.766945 40.20468 C 405.816112 40.20468 409.425834 41.125421 412.590881 42.961671 C 415.76639 44.797921 418.246113 47.366579 420.030048 50.678107 C 421.824446 53.984403 422.724261 57.771996 422.724261 62.040885 Z M 401.766945 46.670792 C 398.083982 46.670792 394.997407 47.790329 392.512453 50.029403 C 390.037963 52.268477 388.583611 55.20857 388.154629 58.839218 L 415.363566 58.839218 C 414.934585 55.271348 413.475001 52.357412 410.984816 50.092181 C 408.510325 47.811255 405.439445 46.670792 401.766945 46.670792 Z M 401.766945 46.670792 " stroke="#6936f5" stroke-width="3" stroke-opacity="1" stroke-miterlimit="4"/></svg>