<svg xmlns="http://www.w3.org/2000/svg" xmlns:xlink="http://www.w3.org/1999/xlink" width="200" zoomAndPan="magnify" viewBox="0 0 150 149.999998" height="200" preserveAspectRatio="xMidYMid meet" version="1.0"><defs><clipPath id="bd333e78bb"><path d="M 10.542969 12 L 98 12 L 98 58 L 10.542969 58 Z M 10.542969 12 " clip-rule="nonzero"/></clipPath><clipPath id="c05f4cfc20"><path d="M 53 93 L 139.957031 93 L 139.957031 139 L 53 139 Z M 53 93 " clip-rule="nonzero"/></clipPath><clipPath id="d6f84a7ab5"><path d="M 10.542969 37 L 71 37 L 71 123 L 10.542969 123 Z M 10.542969 37 " clip-rule="nonzero"/></clipPath><clipPath id="90ae4c75fe"><path d="M 58 0.382812 L 120 0.382812 L 120 86 L 58 86 Z M 58 0.382812 " clip-rule="nonzero"/></clipPath><clipPath id="37e0af02f8"><path d="M 79 28 L 139.957031 28 L 139.957031 114 L 79 114 Z M 79 28 " clip-rule="nonzero"/></clipPath></defs><g clip-path="url(#bd333e78bb)"><path fill="#6936f5" d="M 53.953125 12.519531 L 10.261719 37.710938 L 10.261719 57.253906 L 53.953125 32.0625 L 97.640625 57.253906 L 97.640625 37.710938 Z M 53.953125 12.519531 " fill-opacity="1" fill-rule="nonzero"/></g><g clip-path="url(#c05f4cfc20)"><path fill="#6936f5" d="M 96.886719 138.40625 L 53.195312 113.214844 L 53.195312 93.675781 L 96.886719 118.867188 L 140.574219 93.675781 L 140.574219 113.214844 Z M 96.886719 138.40625 " fill-opacity="1" fill-rule="nonzero"/></g><g clip-path="url(#d6f84a7ab5)"><path fill="#6936f5" d="M 10.261719 62.5 L 53.953125 37.308594 L 70.894531 47.078125 L 27.207031 72.269531 L 27.207031 122.65625 L 10.261719 112.886719 Z M 10.261719 62.5 " fill-opacity="1" fill-rule="nonzero"/></g><g clip-path="url(#90ae4c75fe)"><path fill="#6936f5" d="M 119.136719 25.195312 L 75.449219 0.00390625 L 58.503906 9.773438 L 102.191406 34.964844 L 102.191406 85.351562 L 119.136719 75.578125 Z M 119.136719 25.195312 " fill-opacity="1" fill-rule="nonzero"/></g><path fill="#6936f5" d="M 31.851562 125.5625 L 31.851562 75.179688 L 48.792969 65.410156 L 48.792969 115.796875 L 92.484375 140.984375 L 75.539062 150.757812 Z M 31.851562 125.5625 " fill-opacity="1" fill-rule="nonzero"/><g clip-path="url(#37e0af02f8)"><path fill="#6936f5" d="M 140.574219 88.425781 L 140.574219 38.039062 L 123.628906 28.269531 L 123.628906 78.652344 L 79.941406 103.847656 L 96.886719 113.621094 Z M 140.574219 88.425781 " fill-opacity="1" fill-rule="nonzero"/></g></svg>