<svg xmlns="http://www.w3.org/2000/svg" xmlns:xlink="http://www.w3.org/1999/xlink" width="200" zoomAndPan="magnify" viewBox="0 0 150 149.999998" height="200" preserveAspectRatio="xMidYMid meet" version="1.0"><defs><clipPath id="82b29cb2df"><path d="M 26.5 27 L 92 27 L 92 62 L 26.5 62 Z M 26.5 27 " clip-rule="nonzero"/></clipPath><clipPath id="126a552f8d"><path d="M 58 88 L 123.746094 88 L 123.746094 123 L 58 123 Z M 58 88 " clip-rule="nonzero"/></clipPath><clipPath id="119f0232c3"><path d="M 26.5 46 L 72 46 L 72 111 L 26.5 111 Z M 26.5 46 " clip-rule="nonzero"/></clipPath><clipPath id="053e8f7d41"><path d="M 62 18.855469 L 109 18.855469 L 109 83 L 62 83 Z M 62 18.855469 " clip-rule="nonzero"/></clipPath><clipPath id="f069a38c63"><path d="M 42 67 L 89 67 L 89 131.066406 L 42 131.066406 Z M 42 67 " clip-rule="nonzero"/></clipPath><clipPath id="5ea230bf24"><path d="M 78 39 L 123.746094 39 L 123.746094 104 L 78 104 Z M 78 39 " clip-rule="nonzero"/></clipPath></defs><rect x="-15" width="180" fill="#ffffff" y="-15" height="179.999997" fill-opacity="1"/><rect x="-15" width="180" fill="#ffffff" y="-15" height="179.999997" fill-opacity="1"/><rect x="-15" width="180" fill="#6936f5" y="-15" height="179.999997" fill-opacity="1"/><g clip-path="url(#82b29cb2df)"><path fill="#ffffff" d="M 59.121094 27.957031 L 26.289062 46.851562 L 26.289062 61.507812 L 59.121094 42.613281 L 91.949219 61.507812 L 91.949219 46.851562 Z M 59.121094 27.957031 " fill-opacity="1" fill-rule="nonzero"/></g><g clip-path="url(#126a552f8d)"><path fill="#ffffff" d="M 91.378906 122.367188 L 58.550781 103.476562 L 58.550781 88.820312 L 91.378906 107.714844 L 124.210938 88.820312 L 124.210938 103.476562 Z M 91.378906 122.367188 " fill-opacity="1" fill-rule="nonzero"/></g><g clip-path="url(#119f0232c3)"><path fill="#ffffff" d="M 26.289062 65.441406 L 59.121094 46.546875 L 71.851562 53.875 L 39.019531 72.769531 L 39.019531 110.558594 L 26.289062 103.230469 Z M 26.289062 65.441406 " fill-opacity="1" fill-rule="nonzero"/></g><g clip-path="url(#053e8f7d41)"><path fill="#ffffff" d="M 108.101562 37.460938 L 75.269531 18.570312 L 62.539062 25.898438 L 95.367188 44.789062 L 95.367188 82.578125 L 108.101562 75.25 Z M 108.101562 37.460938 " fill-opacity="1" fill-rule="nonzero"/></g><g clip-path="url(#f069a38c63)"><path fill="#ffffff" d="M 42.507812 112.738281 L 42.511719 74.949219 L 55.242188 67.625 L 55.242188 105.410156 L 88.074219 124.304688 L 75.339844 131.632812 Z M 42.507812 112.738281 " fill-opacity="1" fill-rule="nonzero"/></g><g clip-path="url(#5ea230bf24)"><path fill="#ffffff" d="M 124.210938 84.886719 L 124.210938 47.097656 L 111.476562 39.769531 L 111.476562 77.554688 L 78.648438 96.453125 L 91.378906 103.78125 Z M 124.210938 84.886719 " fill-opacity="1" fill-rule="nonzero"/></g></svg>